<svg width="20" height="19" viewBox="0 0 20 19" fill="none" xmlns="http://www.w3.org/2000/svg">
<path d="M4.19 2.96218C4.18974 3.49261 3.97877 4.00122 3.60351 4.3761C3.22825 4.75099 2.71944 4.96145 2.189 4.96118C1.65857 4.96092 1.14997 4.74995 0.775082 4.37469C0.400197 3.99943 0.189737 3.49061 0.190003 2.96018C0.190268 2.42975 0.401236 1.92115 0.776496 1.54626C1.15176 1.17138 1.66057 0.960917 2.191 0.961182C2.72144 0.961447 3.23004 1.17242 3.60492 1.54768C3.97981 1.92294 4.19027 2.43175 4.19 2.96218ZM4.25 6.44218H0.250003V18.9622H4.25V6.44218ZM10.57 6.44218H6.59V18.9622H10.53V12.3922C10.53 8.73218 15.3 8.39218 15.3 12.3922V18.9622H19.25V11.0322C19.25 4.86218 12.19 5.09218 10.53 8.12218L10.57 6.44218Z" fill="#292525"/>
</svg>
